<mxfile host="app.diagrams.net" modified="2023-07-18T23:35:58.342Z" agent="Mozilla/5.0 (Windows NT 10.0; Win64; x64) AppleWebKit/537.36 (KHTML, like Gecko) Chrome/114.0.0.0 Safari/537.36" etag="nvMRhl1qbrfrQt35qd4o" version="21.6.2" type="device">
  <diagram name="페이지-1" id="LDtXP9MZ2bb_astomi7w">
    <mxGraphModel dx="522" dy="535" grid="1" gridSize="10" guides="1" tooltips="1" connect="1" arrows="1" fold="1" page="1" pageScale="1" pageWidth="827" pageHeight="1169" math="0" shadow="0">
      <root>
        <mxCell id="0" />
        <mxCell id="1" parent="0" />
        <mxCell id="XB6u0h9-JpjnpqoyEkb7-1" value="앱 접속" style="rounded=0;whiteSpace=wrap;html=1;" vertex="1" parent="1">
          <mxGeometry x="70" y="240" width="70" height="40" as="geometry" />
        </mxCell>
        <mxCell id="XB6u0h9-JpjnpqoyEkb7-2" value="관리자 번호 조회 및 수정" style="rounded=0;whiteSpace=wrap;html=1;" vertex="1" parent="1">
          <mxGeometry x="180" y="110" width="90" height="40" as="geometry" />
        </mxCell>
        <mxCell id="XB6u0h9-JpjnpqoyEkb7-3" value="로그아웃" style="rounded=0;whiteSpace=wrap;html=1;" vertex="1" parent="1">
          <mxGeometry x="340" y="110" width="90" height="40" as="geometry" />
        </mxCell>
        <mxCell id="XB6u0h9-JpjnpqoyEkb7-4" value="쓰레기통 조회" style="rounded=0;whiteSpace=wrap;html=1;" vertex="1" parent="1">
          <mxGeometry x="180" y="210" width="100" height="40" as="geometry" />
        </mxCell>
        <mxCell id="XB6u0h9-JpjnpqoyEkb7-5" value="전체 쓰레기통 위치 조회" style="rounded=0;whiteSpace=wrap;html=1;" vertex="1" parent="1">
          <mxGeometry x="335" y="210" width="105" height="50" as="geometry" />
        </mxCell>
        <mxCell id="XB6u0h9-JpjnpqoyEkb7-6" value="" style="rounded=0;whiteSpace=wrap;html=1;" vertex="1" parent="1">
          <mxGeometry x="337.5" y="290" width="102.5" height="50" as="geometry" />
        </mxCell>
      </root>
    </mxGraphModel>
  </diagram>
</mxfile>
